grf
version=1
nRows=19
nColumns=37
inDegrees=no
endheader
time	ground_force_1_vx	ground_force_1_vy	ground_force_1_vz	ground_force_1_px	ground_force_1_py	ground_force_1_pz	ground_moment_1_mx	ground_moment_1_my	ground_moment_1_mz	ground_force_2_vx	ground_force_2_vy	ground_force_2_vz	ground_force_2_px	ground_force_2_py	ground_force_2_pz	ground_moment_2_mx	ground_moment_2_my	ground_moment_2_mz	ground_force_3_vx	ground_force_3_vy	ground_force_3_vz	ground_force_3_px	ground_force_3_py	ground_force_3_pz	ground_moment_3_mx	ground_moment_3_my	ground_moment_3_mz	ground_force_4_vx	ground_force_4_vy	ground_force_4_vz	ground_force_4_px	ground_force_4_py	ground_force_4_pz	ground_moment_4_mx	ground_moment_4_my	ground_moment_4_mz
      0.00000000	      0.00000000	     -0.00000000	      0.00000000	      0.00000000	      0.00000000	      0.00000000	      0.00000000	      0.00000000	      0.00000000	      1.01347685	     17.37228584	   -186.31767273	   -288.78729161	   -940.36463794	      0.00000000	      0.00000000	      0.00000000	    883.89907696	     -3.98418604	    -13.44042761	   -454.71820068	   -333.87617430	   -731.72791772	      0.00000000	      0.00000000	     -0.00000000	  -3192.81842961	      0.00000000	     -0.00000000	      0.00000000	      0.00000000	      0.00000000	      0.00000000	      0.00000000	      0.00000000	      0.00000000
      0.01000000	      0.00000000	     -0.00000000	      0.00000000	      0.00000000	      0.00000000	      0.00000000	      0.00000000	      0.00000000	      0.00000000	      0.44605255	     17.27474403	   -185.45225525	   -286.78485567	   -939.50299894	      0.00000000	      0.00000000	      0.00000000	    726.75384926	     -4.25018466	    -13.77818280	   -455.00701904	   -333.60826789	   -731.63275901	      0.00000000	      0.00000000	      0.00000000	  -3142.66337602	      0.00000000	     -0.00000000	      0.00000000	      0.00000000	      0.00000000	      0.00000000	      0.00000000	      0.00000000	      0.00000000
      0.02000000	      0.00000000	     -0.00000000	      0.00000000	      0.00000000	      0.00000000	      0.00000000	      0.00000000	      0.00000000	      0.00000000	      0.87525427	     17.71169662	   -184.74645996	   -287.31863043	   -935.18363427	      0.00000000	      0.00000000	      0.00000000	    821.67992535	     -4.50002921	    -13.68182258	   -454.56362915	   -333.60154612	   -731.44540143	      0.00000000	      0.00000000	     -0.00000000	  -2959.16122480	      0.00000000	     -0.00000000	      0.00000000	      0.00000000	      0.00000000	      0.00000000	      0.00000000	      0.00000000	      0.00000000
      0.03000000	      0.00000000	     -0.00000000	      0.00000000	      0.00000000	      0.00000000	      0.00000000	      0.00000000	      0.00000000	      0.00000000	      0.61590034	     17.64781952	   -188.00730896	   -287.06722850	   -944.75482303	      0.00000000	      0.00000000	      0.00000000	    807.68030881	     -4.16940750	    -13.89924413	   -453.58032227	   -333.52831066	   -731.80152017	      0.00000000	      0.00000000	     -0.00000000	  -3148.39604592	      0.00000000	     -0.00000000	      0.00000000	      0.00000000	      0.00000000	      0.00000000	      0.00000000	      0.00000000	      0.00000000
      0.04000000	      0.00000000	     -0.00000000	      0.00000000	      0.00000000	      0.00000000	      0.00000000	      0.00000000	      0.00000000	      0.00000000	      0.61575937	     18.04123306	   -186.22932434	   -287.58325222	   -937.96673297	      0.00000000	      0.00000000	      0.00000000	    837.20171227	     -4.06397451	    -13.96315080	   -453.66674805	   -333.09158437	   -730.83220617	      0.00000000	      0.00000000	      0.00000000	  -3180.73416276	      0.00000000	     -0.00000000	      0.00000000	      0.00000000	      0.00000000	      0.00000000	      0.00000000	      0.00000000	      0.00000000
      0.05000000	      0.00000000	     -0.00000000	      0.00000000	      0.00000000	      0.00000000	      0.00000000	      0.00000000	      0.00000000	      0.00000000	      0.87440640	     17.92405128	   -187.04238892	   -286.38702497	   -939.26215740	      0.00000000	      0.00000000	      0.00000000	    949.13695369	     -4.16940750	    -13.94636804	   -452.68249512	   -333.12813119	   -730.62691034	      0.00000000	      0.00000000	     -0.00000000	  -3095.47380371	      0.00000000	     -0.00000000	      0.00000000	      0.00000000	      0.00000000	      0.00000000	      0.00000000	      0.00000000	      0.00000000
      0.06000000	      0.00000000	     -0.00000000	      0.00000000	      0.00000000	      0.00000000	      0.00000000	      0.00000000	      0.00000000	      0.00000000	      0.70400256	     18.04026985	   -189.51525879	   -285.95513327	   -940.53923488	      0.00000000	      0.00000000	      0.00000000	    915.76277550	     -4.22357620	    -13.97202092	   -448.89776611	   -333.53281409	   -731.98856836	      0.00000000	      0.00000000	     -0.00000000	  -3006.51706694	      0.00000000	     -0.00000000	      0.00000000	      0.00000000	      0.00000000	      0.00000000	      0.00000000	      0.00000000	      0.00000000
      0.07000000	      0.00000000	     -0.00000000	      0.00000000	      0.00000000	      0.00000000	      0.00000000	      0.00000000	      0.00000000	      0.00000000	      0.74806529	     18.02260208	   -193.60635376	   -286.15963164	   -943.85281852	      0.00000000	      0.00000000	      0.00000000	   1051.82377577	     -3.67227330	    -14.22853549	   -446.35403442	   -333.23833097	   -732.36515805	      0.00000000	      0.00000000	     -0.00000000	  -3179.90575951	      0.00000000	     -0.00000000	      0.00000000	      0.00000000	      0.00000000	      0.00000000	      0.00000000	      0.00000000	      0.00000000
      0.08000000	      0.00000000	     -0.00000000	      0.00000000	      0.00000000	      0.00000000	      0.00000000	      0.00000000	      0.00000000	      0.00000000	      0.31402844	     18.54839516	   -195.12481689	   -286.12046013	   -944.13494811	      0.00000000	      0.00000000	      0.00000000	    902.69180605	     -3.57520119	    -14.40531810	   -445.62283325	   -333.71252505	   -732.25761217	      0.00000000	      0.00000000	     -0.00000000	  -3285.67840111	      0.00000000	     -0.00000000	      0.00000000	      0.00000000	      0.00000000	      0.00000000	      0.00000000	      0.00000000	      0.00000000
      0.09000000	      0.00000000	     -0.00000000	      0.00000000	      0.00000000	      0.00000000	      0.00000000	      0.00000000	      0.00000000	      0.00000000	      0.16900650	     18.95655823	   -193.91531372	   -284.93254606	   -938.36598388	      0.00000000	      0.00000000	      0.00000000	    705.96415499	     -3.88516035	    -14.11343462	   -445.55310059	   -333.79590600	   -730.94797537	      0.00000000	     -0.00000000	     -0.00000000	  -3212.39979214	      0.00000000	     -0.00000000	      0.00000000	      0.00000000	      0.00000000	      0.00000000	      0.00000000	      0.00000000	      0.00000000
      0.10000000	      0.00000000	     -0.00000000	      0.00000000	      0.00000000	      0.00000000	      0.00000000	      0.00000000	      0.00000000	      0.00000000	      0.78378576	     18.98477554	   -198.00772095	   -286.13996943	   -944.19065822	      0.00000000	      0.00000000	      0.00000000	   1014.00286669	     -3.52409687	    -14.14062580	   -444.22943115	   -333.21144775	   -731.69505430	      0.00000000	      0.00000000	      0.00000000	  -3297.36849217	      0.00000000	     -0.00000000	      0.00000000	      0.00000000	      0.00000000	      0.00000000	      0.00000000	      0.00000000	      0.00000000
      0.11000000	      0.00000000	     -0.00000000	      0.00000000	      0.00000000	      0.00000000	      0.00000000	      0.00000000	      0.00000000	      0.00000000	      0.38406509	     19.39165115	   -198.80189514	   -286.14203111	   -943.20812851	      0.00000000	      0.00000000	      0.00000000	    774.43977286	     -3.67451897	    -14.15007575	   -443.90017700	   -333.75202502	   -731.77132963	      0.00000000	      0.00000000	     -0.00000000	  -3133.01746781	      0.00000000	     -0.00000000	      0.00000000	      0.00000000	      0.00000000	      0.00000000	      0.00000000	      0.00000000	      0.00000000
      0.12000000	      0.00000000	     -0.00000000	      0.00000000	      0.00000000	      0.00000000	      0.00000000	      0.00000000	      0.00000000	      0.00000000	      0.64416176	     19.48021698	   -199.93881226	   -285.68458032	   -944.85906607	      0.00000000	      0.00000000	      0.00000000	    833.52128815	     -3.63714280	    -14.07147678	   -443.34790039	   -334.08020711	   -731.44673639	      0.00000000	      0.00000000	      0.00000000	  -3093.75698046	      0.00000000	     -0.00000000	      0.00000000	      0.00000000	      0.00000000	      0.00000000	      0.00000000	      0.00000000	      0.00000000
      0.13000000	      0.00000000	     -0.00000000	      0.00000000	      0.00000000	      0.00000000	      0.00000000	      0.00000000	      0.00000000	      0.00000000	      0.50589710	     19.65795898	   -199.07722473	   -286.68342837	   -938.83366707	      0.00000000	      0.00000000	      0.00000000	    700.16432064	     -3.45010748	    -14.27939781	   -443.03558350	   -333.77615308	   -731.92129044	      0.00000000	     -0.00000000	     -0.00000000	  -3161.18758542	      0.00000000	     -0.00000000	      0.00000000	      0.00000000	      0.00000000	      0.00000000	      0.00000000	      0.00000000	      0.00000000
      0.14000000	      0.00000000	     -0.00000000	      0.00000000	      0.00000000	      0.00000000	      0.00000000	      0.00000000	      0.00000000	      0.00000000	      1.19834089	     19.89442444	   -201.31256104	   -285.71325939	   -940.17192679	      0.00000000	      0.00000000	      0.00000000	    909.77755399	     -3.72585357	    -13.87622149	   -442.02593994	   -333.98951130	   -731.78330577	      0.00000000	      0.00000000	     -0.00000000	  -3046.95015064	      0.00000000	     -0.00000000	      0.00000000	      0.00000000	      0.00000000	      0.00000000	      0.00000000	      0.00000000	      0.00000000
      0.15000000	      0.00000000	     -0.00000000	      0.00000000	      0.00000000	      0.00000000	      0.00000000	      0.00000000	      0.00000000	      0.00000000	      0.92291224	     19.76642990	   -203.43164062	   -286.31224138	   -940.54386167	      0.00000000	      0.00000000	      0.00000000	    832.61820084	     -3.64705004	    -14.03328403	   -440.08700562	   -334.19017098	   -732.69186179	      0.00000000	      0.00000000	     -0.00000000	  -3218.98723704	      0.00000000	     -0.00000000	      0.00000000	      0.00000000	      0.00000000	      0.00000000	      0.00000000	      0.00000000	      0.00000000
      0.16000000	      0.00000000	     -0.00000000	      0.00000000	      0.00000000	      0.00000000	      0.00000000	      0.00000000	      0.00000000	      0.00000000	      0.90251547	     20.13306999	   -205.32118225	   -284.94824282	   -940.17330910	      0.00000000	      0.00000000	      0.00000000	    869.98417554	     -3.80451668	    -13.77818282	   -438.34347534	   -333.75885574	   -731.85753950	      0.00000000	      0.00000000	      0.00000000	  -2985.57277476	      0.00000000	     -0.00000000	      0.00000000	      0.00000000	      0.00000000	      0.00000000	      0.00000000	      0.00000000	      0.00000000
      0.17000000	      0.00000000	     -0.00000000	      0.00000000	      0.00000000	      0.00000000	      0.00000000	      0.00000000	      0.00000000	      0.00000000	      1.07052612	     20.49999237	   -207.14971924	   -285.46132534	   -940.89870949	      0.00000000	      0.00000000	      0.00000000	    965.77176930	     -3.58913553	    -13.67973026	   -436.62847900	   -334.24642698	   -731.08826124	      0.00000000	     -0.00000000	     -0.00000000	  -3180.45590874	      0.00000000	     -0.00000000	      0.00000000	      0.00000000	      0.00000000	      0.00000000	      0.00000000	      0.00000000	      0.00000000
      0.18000000	      0.00000000	     -0.00000000	      0.00000000	      0.00000000	      0.00000000	      0.00000000	      0.00000000	      0.00000000	      0.00000000	      1.23826170	     21.25946236	   -211.24389648	   -285.22275283	   -943.29361980	      0.00000000	      0.00000000	      0.00000000	    839.24146352	     -4.13844360	    -13.98149186	   -432.37155151	   -334.04537005	   -731.96827805	      0.00000000	     -0.00000000	     -0.00000000	  -3128.44583330	      0.00000000	     -0.00000000	      0.00000000	      0.00000000	      0.00000000	      0.00000000	      0.00000000	      0.00000000	      0.00000000
